<svg width="724" height="253" viewBox="0 0 724 253" fill="none" xmlns="http://www.w3.org/2000/svg">
<path d="M144.75 68.75C144.75 79.9167 142.167 90.0833 137 99.25C131.833 108.25 124.167 115.417 114 120.75C104 126.083 91.8333 128.75 77.5 128.75H55.5V185H1.86265e-07V8H77.5C99.1667 8 115.75 13.5 127.25 24.5C138.917 35.5 144.75 50.25 144.75 68.75ZM71.25 85C82.75 85 88.5 79.5833 88.5 68.75C88.5 57.9167 82.75 52.5 71.25 52.5H55.5V85H71.25ZM311.604 44V185H256.104V163.5C251.77 170.167 245.937 175.583 238.604 179.75C231.437 183.917 222.854 186 212.854 186C196.687 186 184.02 180.583 174.854 169.75C165.854 158.917 161.354 144.25 161.354 125.75V44H216.604V118.75C216.604 125.417 218.354 130.75 221.854 134.75C225.52 138.583 230.354 140.5 236.354 140.5C242.52 140.5 247.354 138.583 250.854 134.75C254.354 130.75 256.104 125.417 256.104 118.75V44H311.604ZM392.17 -2.38419e-06V185H336.67V-2.38419e-06H392.17ZM472.736 63.25C476.236 56.75 481.236 51.6667 487.736 48C494.403 44.1667 502.32 42.25 511.486 42.25C522.486 42.25 532.403 45.1667 541.236 51C550.07 56.6667 556.986 65 561.986 76C567.153 86.8333 569.736 99.6667 569.736 114.5C569.736 129.333 567.153 142.25 561.986 153.25C556.986 164.083 550.07 172.417 541.236 178.25C532.403 183.917 522.486 186.75 511.486 186.75C502.32 186.75 494.403 184.917 487.736 181.25C481.236 177.417 476.236 172.25 472.736 165.75V252.5H417.236V44H472.736V63.25ZM513.486 114.5C513.486 107 511.57 101.167 507.736 97C503.903 92.8333 498.986 90.75 492.986 90.75C486.986 90.75 482.07 92.8333 478.236 97C474.403 101.167 472.486 107 472.486 114.5C472.486 122 474.403 127.833 478.236 132C482.07 136.167 486.986 138.25 492.986 138.25C498.986 138.25 503.903 136.167 507.736 132C511.57 127.833 513.486 122 513.486 114.5ZM723.658 113.25C723.658 117.083 723.408 120.75 722.908 124.25H633.658C634.492 136.417 639.575 142.5 648.908 142.5C654.908 142.5 659.242 139.75 661.908 134.25H720.658C718.658 144.25 714.408 153.25 707.908 161.25C701.575 169.083 693.492 175.333 683.658 180C673.992 184.5 663.325 186.75 651.658 186.75C637.658 186.75 625.158 183.833 614.158 178C603.325 172.167 594.825 163.833 588.658 153C582.658 142 579.658 129.167 579.658 114.5C579.658 99.8333 582.658 87.0833 588.658 76.25C594.825 65.25 603.325 56.8333 614.158 51C625.158 45.1667 637.658 42.25 651.658 42.25C665.658 42.25 678.075 45.1667 688.908 51C699.908 56.6667 708.408 64.8333 714.408 75.5C720.575 86.1667 723.658 98.75 723.658 113.25ZM667.408 100C667.408 95.3333 665.908 91.8333 662.908 89.5C659.908 87 656.158 85.75 651.658 85.75C641.825 85.75 636.075 90.5 634.408 100H667.408Z" fill="#006820"/>
</svg>
