<svg width="724" height="256" viewBox="0 -760 2964 1050" fill="none" xmlns="http://www.w3.org/2000/svg">
<path d="M360 -225H272V0H50V-708H360Q490 -708 559.5 -642.0Q629 -576 629 -465Q629 -398 598.0 -343.5Q567 -289 506.5 -257.0Q446 -225 360 -225ZM404 -465Q404 -530 335 -530H272V-400H335Q404 -400 404 -465Z" fill="#006820"/>
<path d="M1296 -564V0H1074V-86Q1048 -46 1004.5 -21.0Q961 4 901 4Q804 4 749.5 -61.0Q695 -126 695 -237V-564H916V-265Q916 -225 937.5 -201.5Q959 -178 995 -178Q1032 -178 1053.0 -201.5Q1074 -225 1074 -265V-564Z" fill="#006820"/>
<path d="M1618 -740V0H1396V-740Z" fill="#006820"/>
<path d="M2095 -571Q2161 -571 2214.0 -536.5Q2267 -502 2297.5 -436.5Q2328 -371 2328 -282Q2328 -193 2297.5 -127.5Q2267 -62 2214.0 -27.5Q2161 7 2095 7Q2040 7 2000.5 -15.5Q1961 -38 1940 -77V270H1718V-564H1940V-487Q1961 -526 2000.5 -548.5Q2040 -571 2095 -571ZM2021 -377Q1985 -377 1962.0 -352.0Q1939 -327 1939 -282Q1939 -237 1962.0 -212.0Q1985 -187 2021 -187Q2057 -187 2080.0 -212.0Q2103 -237 2103 -282Q2103 -327 2080.0 -352.0Q2057 -377 2021 -377Z" fill="#006820"/>
<path d="M2941 -243H2584Q2589 -170 2645 -170Q2681 -170 2697 -203H2932Q2920 -143 2881.5 -95.5Q2843 -48 2784.5 -20.5Q2726 7 2656 7Q2572 7 2506.5 -28.0Q2441 -63 2404.5 -128.5Q2368 -194 2368 -282Q2368 -370 2404.5 -435.5Q2441 -501 2506.5 -536.0Q2572 -571 2656 -571Q2740 -571 2805.5 -536.5Q2871 -502 2907.5 -438.0Q2944 -374 2944 -287Q2944 -264 2941 -243ZM2719 -340Q2719 -368 2701.0 -382.5Q2683 -397 2656 -397Q2597 -397 2587 -340Z" fill="#006820"/>
</svg>
