<?xml version="1.0" encoding="UTF-8"?>
<svg width="1200" height="630" viewBox="0 0 1200 630" fill="none" xmlns="http://www.w3.org/2000/svg">
  <!-- Background gradient -->
  <defs>
    <linearGradient id="bgGradient" x1="0%" y1="0%" x2="100%" y2="100%">
      <stop offset="0%" stop-color="#F6FFF0"/>
      <stop offset="100%" stop-color="#EBFFE6"/>
    </linearGradient>
    <!-- Poppins font embedding via Google Fonts -->
    <style type="text/css">
      @import url('https://fonts.googleapis.com/css2?family=Poppins:wght@400;500;600;700&amp;display=swap');
    </style>
  </defs>

  <!-- Background -->
  <rect width="1200" height="630" fill="url(#bgGradient)"/>

  <!-- Decorative circles (subtle) -->
  <circle cx="100" cy="530" r="200" fill="#006E25" opacity="0.03"/>
  <circle cx="1100" cy="100" r="150" fill="#006E25" opacity="0.03"/>

  <!-- Logo centered -->
  <g transform="translate(470, 80)">
    <svg width="260" height="182" viewBox="0 0 519 364" fill="none" xmlns="http://www.w3.org/2000/svg">
<path d="M63.0779 73.0042C90.5429 60.7742 115.607 60.1222 144.954 60.9502C152.99 61.2352 161.376 62.3382 169.361 62.6762C207.335 64.2822 243.801 62.6212 279.23 47.1812C297.994 39.0032 315.849 27.9792 334.434 19.3252C361.037 6.9362 397.259 -4.30083 426.53 1.63217C436.301 2.47017 452.884 6.72318 461.158 12.0432C479.133 19.5872 498.25 43.5062 505.236 61.5022C508.395 70.1392 512.556 78.8592 514.514 87.8652C520.715 116.553 519.927 146.077 513.175 174.607C473.559 341.991 281.865 399.793 133.542 341.062C57.6689 311.018 -11.8481 235.011 1.70189 147.117C2.90589 139.308 4.89689 130.96 8.22389 123.732C16.4709 100.834 39.5979 79.5652 63.0779 73.0042Z" fill="#DFFDED"/>
<path d="M459.672 16.1373C457.98 13.6703 456.661 13.2003 454.057 11.5923C454.768 10.4853 455.056 10.5263 456.204 10.4023C458.039 11.2983 459.108 12.0703 461.158 12.0433C479.133 19.5873 498.25 43.5063 505.236 61.5023C508.395 70.1394 512.556 78.8593 514.514 87.8653C520.715 116.553 519.927 146.077 513.175 174.607C473.559 341.991 281.865 399.793 133.542 341.062C57.6689 311.018 -11.8481 235.011 1.70189 147.117C2.90589 139.308 4.89689 130.96 8.22389 123.732C9.05789 127.19 14.8859 133.107 17.7039 135.855C19.1049 137.222 22.4119 139.288 23.6709 140.918C24.3879 142.74 22.9539 150.612 24.4089 152.171C24.5219 155.362 24.7919 158.545 25.2209 161.709C26.7959 175.157 30.3119 188.305 35.6579 200.745C40.2749 211.746 45.7299 220.352 51.9489 230.329C67.4269 255.165 81.7789 273.361 105.025 291.269C113.542 297.73 122.737 303.243 132.449 307.71C158.981 320.139 202.834 332.171 231.912 336.118C246.119 337.016 263.214 338.182 277.253 335.739C333.401 325.893 392.458 312.985 435.094 272.429C454.439 254.029 461.888 241.252 474.789 218.703C496.558 181.583 509.504 138.688 503.104 95.3994C498.444 63.8764 485.641 35.6033 459.672 16.1373Z" fill="url(#paint0_linear_62160_503)"/>
<path d="M8.22394 123.732C16.4709 100.834 39.5979 79.5654 63.0779 73.0044C57.6429 77.5364 52.3189 81.1734 47.2519 86.2764C30.5549 103.091 24.4479 129.18 24.4089 152.171C22.9539 150.612 24.3879 142.74 23.6709 140.918C22.4119 139.288 19.1049 137.222 17.7039 135.855C14.8859 133.107 9.05794 127.19 8.22394 123.732Z" fill="#12C04D"/>
<path d="M426.53 1.63232C436.301 2.47032 452.884 6.72333 461.158 12.0433C459.108 12.0703 458.039 11.2983 456.204 10.4023C455.056 10.5263 454.768 10.4853 454.057 11.5923C456.661 13.2003 457.98 13.6703 459.672 16.1373C447.144 8.24633 440.246 5.99132 426.53 1.63232Z" fill="#006E25"/>
<path d="M396.873 17.5202C413.107 15.2392 435.816 21.4642 448.932 31.2642C483.282 56.9302 488.299 112.011 477.902 150.688C474.244 164.298 462.967 188.066 448.367 191.004C439.573 192.774 416.794 173.356 409.348 167.675C408.718 167.211 408.09 166.743 407.465 166.272C383.38 148.135 359.862 128.049 337.116 108.226C325.22 97.8603 313.502 86.8502 303.041 75.0302C290.801 61.1992 306.121 51.2673 317.18 44.8422C340.305 31.2452 369.963 19.7072 396.873 17.5202Z" fill="url(#paint1_linear_62160_503)"/>
<path d="M251.442 84.9253C255.508 85.5073 257.965 86.0683 261.16 89.0473C263.623 91.3443 265.952 95.7623 267.233 98.9383C272.287 111.475 276.52 124.7 280.633 137.563C291.362 171.229 300.695 205.325 308.607 239.763C311.513 251.898 315.33 265.995 316.593 278.344C317.143 283.72 313.553 290.786 309.639 294.545C294.516 309.067 271.358 311.137 251.837 311.496C234.372 311.18 213.532 309.009 198.182 300.389C177.83 288.961 187.85 270.253 192.794 253.375L208.615 199.238L224.182 142.801C228.241 127.586 232.24 105.983 238.945 91.8773C240.873 87.8213 246.946 85.6753 251.442 84.9253Z" fill="url(#paint2_linear_62160_503)"/>
<path d="M282.263 73.9264C296.539 73.0204 310.692 90.8074 320.742 100.237C343.275 121.289 366.681 141.386 390.897 160.477C399.457 167.128 408.097 173.676 416.814 180.119C428.913 189.136 444.657 197.724 441.367 215.441C437.676 235.319 421.394 251.687 406.268 263.848C389.741 275.861 358.772 294.176 337.249 287.204C324.237 282.988 321.89 267.652 318.902 255.928L309.913 219.139C302.314 188.466 293.471 158.114 283.408 128.158C279.209 115.973 273.771 102.071 271.059 89.4514C269.289 81.2134 275.12 76.6514 282.263 73.9264Z" fill="url(#paint3_linear_62160_503)"/>
<path d="M215.706 84.9046C230.018 83.3006 230.464 93.3156 228.015 104.27C224.21 121.288 219.792 138.157 215.153 154.961C208.243 180.416 200.962 205.77 193.313 231.014C190.553 240.304 181.817 271.77 177.673 278.069C174.486 282.889 169.434 286.161 163.733 287.099C148.456 289.511 127.846 278.103 115.851 269.746C102.502 259.879 71.5509 227.506 89.6039 210.173C109.692 190.887 131.988 173.186 152.393 154.051C162.584 144.421 172.259 134.26 181.378 123.609C186.941 117.009 192.304 110.272 197.794 103.622C203.359 96.8806 207.266 88.1106 215.706 84.9046Z" fill="url(#paint4_linear_62160_503)"/>
<path d="M130.841 72.5193C147.512 71.5403 165.196 72.9893 181.837 74.0873C187.688 74.5793 197.169 75.5963 201.415 80.0613C207.006 85.9403 195.374 98.5183 192.004 102.906C166.501 136.104 133.527 164.988 102.047 191.969C92.4089 200.357 80.7269 215.679 68.0459 203.439C41.7929 178.097 37.6609 125.249 62.0269 97.3223C78.9189 77.9603 106.733 74.2253 130.841 72.5193Z" fill="url(#paint5_linear_62160_503)"/>
<defs>
<linearGradient id="paint0_linear_62160_503" x1="290.547" y1="360.054" x2="243.556" y2="40.8812" gradientUnits="userSpaceOnUse">
<stop stop-color="#006E25"/>
<stop offset="1" stop-color="#00D199"/>
</linearGradient>
<linearGradient id="paint1_linear_62160_503" x1="488.369" y1="134.078" x2="312.38" y2="37.6598" gradientUnits="userSpaceOnUse">
<stop stop-color="#006E25"/>
<stop offset="1" stop-color="#BEEBBA"/>
</linearGradient>
<linearGradient id="paint2_linear_62160_503" x1="248.813" y1="310.472" x2="264.364" y2="86.5654" gradientUnits="userSpaceOnUse">
<stop stop-color="#006E25"/>
<stop offset="1" stop-color="#BEEBBA"/>
</linearGradient>
<linearGradient id="paint3_linear_62160_503" x1="399.442" y1="267.648" x2="284.003" y2="72.797" gradientUnits="userSpaceOnUse">
<stop stop-color="#006E25"/>
<stop offset="1" stop-color="#BEEBBA"/>
</linearGradient>
<linearGradient id="paint4_linear_62160_503" x1="118.19" y1="270.911" x2="220.138" y2="84.6667" gradientUnits="userSpaceOnUse">
<stop stop-color="#006E25"/>
<stop offset="1" stop-color="#BEEBBA"/>
</linearGradient>
<linearGradient id="paint5_linear_62160_503" x1="124.388" y1="72.1953" x2="124.388" y2="208.006" gradientUnits="userSpaceOnUse">
<stop stop-color="#BEEBBA"/>
<stop offset="1" stop-color="#006E25"/>
</linearGradient>
</defs>
</svg>
  </g>

  <!-- Text content -->
  <text x="600" y="340" text-anchor="middle" font-family="Poppins, Arial, sans-serif" font-size="64" font-weight="700" fill="#1A1C19">
    Pulpe
  </text>

  <text x="600" y="400" text-anchor="middle" font-family="Poppins, Arial, sans-serif" font-size="28" font-weight="500" fill="#1A1C19">
    L&apos;app budget simple pour
  </text>

  <text x="600" y="440" text-anchor="middle" font-family="Poppins, Arial, sans-serif" font-size="28" font-weight="500" fill="#1A1C19">
    planifier ton ann&#233;e
  </text>

  <!-- Features row -->
  <text x="600" y="510" text-anchor="middle" font-family="Poppins, Arial, sans-serif" font-size="20" font-weight="400" fill="#5D5F5B">
    Planifie tes d&#233;penses &#183; Anticipe ton budget &#183; Atteins tes objectifs
  </text>

  <!-- URL -->
  <text x="600" y="580" text-anchor="middle" font-family="Poppins, Arial, sans-serif" font-size="22" font-weight="600" fill="#006E25">
    pulpe.app
  </text>
</svg>