<svg width="519" height="353" viewBox="0 0 519 353" fill="none" xmlns="http://www.w3.org/2000/svg">
<path d="M459.672 5.73499C457.98 3.26799 456.661 2.798 454.057 1.19C454.768 0.0830024 455.056 0.124 456.204 0C458.039 0.896 459.108 1.66799 461.158 1.64099C479.133 9.18499 498.25 33.104 505.236 51.1C508.395 59.737 512.556 68.457 514.514 77.463C520.715 106.151 519.927 135.675 513.175 164.205C473.559 331.589 281.865 389.391 133.542 330.66C57.6689 300.616 -11.8481 224.609 1.70189 136.715C2.90589 128.906 4.89689 120.558 8.22389 113.33C9.05789 116.788 14.8859 122.705 17.7039 125.453C19.1049 126.82 22.4119 128.886 23.6709 130.516C24.3879 132.338 22.9539 140.21 24.4089 141.769C24.5219 144.96 24.7919 148.143 25.2209 151.307C26.7959 164.755 30.3119 177.903 35.6579 190.343C40.2749 201.344 45.7299 209.95 51.9489 219.927C67.4269 244.763 81.7789 262.959 105.025 280.867C113.542 287.328 122.737 292.841 132.449 297.308C158.981 309.737 202.834 321.769 231.912 325.716C246.119 326.614 263.214 327.78 277.253 325.337C333.401 315.491 392.458 302.583 435.094 262.027C454.439 243.627 461.888 230.85 474.789 208.301C496.558 171.181 509.504 128.286 503.104 84.997C498.444 53.474 485.641 25.201 459.672 5.73499Z" fill="url(#paint0_linear_62159_505)"/>
<defs>
<linearGradient id="paint0_linear_62159_505" x1="290.547" y1="349.652" x2="243.556" y2="30.4789" gradientUnits="userSpaceOnUse">
<stop stop-color="#006E25"/>
<stop offset="1" stop-color="#00D199"/>
</linearGradient>
</defs>
</svg>
