<svg width="131" height="227" viewBox="0 0 131 227" fill="none" xmlns="http://www.w3.org/2000/svg">
<path d="M65.5164 0C69.5824 0.582 72.0394 1.14301 75.2344 4.12201C77.6974 6.41901 80.0264 10.837 81.3074 14.013C86.3614 26.55 90.5944 39.775 94.7074 52.638C105.436 86.304 114.769 120.4 122.681 154.838C125.587 166.973 129.404 181.07 130.667 193.419C131.217 198.795 127.627 205.861 123.713 209.62C108.59 224.142 85.4324 226.212 65.9114 226.571C48.4464 226.255 27.6064 224.084 12.2564 215.464C-8.09559 204.036 1.92441 185.328 6.86841 168.45L22.6894 114.313L38.2564 57.876C42.3154 42.661 46.3144 21.058 53.0194 6.95203C54.9474 2.89603 61.0204 0.75 65.5164 0Z" fill="url(#paint0_linear_62159_509)"/>
<defs>
<linearGradient id="paint0_linear_62159_509" x1="62.8877" y1="225.546" x2="78.4388" y2="1.64013" gradientUnits="userSpaceOnUse">
<stop stop-color="#006E25"/>
<stop offset="1" stop-color="#BEEBBA"/>
</linearGradient>
</defs>
</svg>
