<svg width="146" height="203" viewBox="0 0 146 203" fill="none" xmlns="http://www.w3.org/2000/svg">
<path d="M131.613 0.169764C145.925 -1.43424 146.371 8.58078 143.922 19.5348C140.117 36.5528 135.699 53.4218 131.06 70.2258C124.15 95.6808 116.869 121.035 109.22 146.279C106.46 155.569 97.7236 187.035 93.5796 193.334C90.3926 198.154 85.3406 201.426 79.6396 202.364C64.3626 204.776 43.7526 193.368 31.7576 185.011C18.4086 175.144 -12.5424 142.771 5.51059 125.438C25.5986 106.152 47.8946 88.4508 68.2996 69.3158C78.4906 59.6858 88.1656 49.5248 97.2846 38.8738C102.848 32.2738 108.211 25.5368 113.701 18.8868C119.266 12.1458 123.173 3.37576 131.613 0.169764Z" fill="url(#paint0_linear_62159_511)"/>
<defs>
<linearGradient id="paint0_linear_62159_511" x1="34.0969" y1="186.176" x2="136.045" y2="-0.0681367" gradientUnits="userSpaceOnUse">
<stop stop-color="#006E25"/>
<stop offset="1" stop-color="#BEEBBA"/>
</linearGradient>
</defs>
</svg>
