<svg xmlns="http://www.w3.org/2000/svg" width="519" height="519" fill="none" viewBox="0 0 519 519"><g transform="translate(0 77.5)"><path fill="#dffded" d="M63.078 73.004c27.465-12.23 52.529-12.882 81.876-12.054 8.036.285 16.422 1.388 24.407 1.726 37.974 1.606 74.44-.055 109.869-15.495 18.764-8.178 36.619-19.202 55.204-27.856C361.037 6.936 397.259-4.3 426.53 1.632c9.771.838 26.354 5.091 34.628 10.411 17.975 7.544 37.092 31.463 44.078 49.46 3.159 8.636 7.32 17.356 9.278 26.362 6.201 28.688 5.413 58.212-1.339 86.742-39.616 167.384-231.31 225.186-379.633 166.455-75.873-30.044-145.39-106.051-131.84-193.945 1.204-7.809 3.195-16.157 6.522-23.385 8.247-22.898 31.374-44.167 54.854-50.728"/><path fill="url(#a)" d="M459.672 16.137c-1.692-2.467-3.011-2.937-5.615-4.545.711-1.107.999-1.066 2.147-1.19 1.835.896 2.904 1.668 4.954 1.641 17.975 7.544 37.092 31.463 44.078 49.46 3.159 8.636 7.32 17.356 9.278 26.362 6.201 28.688 5.413 58.212-1.339 86.742-39.616 167.384-231.31 225.186-379.633 166.455-75.873-30.044-145.39-106.051-131.84-193.945 1.204-7.809 3.195-16.157 6.522-23.385.834 3.458 6.662 9.375 9.48 12.123 1.4 1.367 4.708 3.433 5.967 5.063.717 1.822-.717 9.694.738 11.253.113 3.191.383 6.374.812 9.538a140.2 140.2 0 0 0 10.437 39.036c4.617 11.001 10.072 19.607 16.29 29.584 15.479 24.836 29.83 43.032 53.077 60.94a147 147 0 0 0 27.424 16.441c26.532 12.429 70.385 24.461 99.463 28.408 14.207.898 31.302 2.064 45.341-.379 56.148-9.846 115.205-22.754 157.841-63.31 19.345-18.4 26.794-31.177 39.695-53.726 21.769-37.12 34.715-80.015 28.315-123.304-4.66-31.523-17.463-59.796-43.432-79.262"/><path fill="#12c04d" d="M8.224 123.732c8.247-22.898 31.374-44.167 54.854-50.728-5.435 4.532-10.76 8.17-15.826 13.272-16.697 16.815-22.804 42.904-22.843 65.895-1.455-1.559-.021-9.431-.738-11.253-1.26-1.63-4.566-3.696-5.967-5.063-2.818-2.748-8.646-8.665-9.48-12.123"/><path fill="#006e25" d="M426.53 1.632c9.771.838 26.354 5.091 34.628 10.411-2.05.027-3.119-.745-4.954-1.64-1.148.123-1.436.082-2.147 1.19 2.604 1.607 3.923 2.077 5.615 4.544-12.528-7.89-19.426-10.146-33.142-14.505"/><path fill="url(#b)" d="M396.873 17.52c16.234-2.28 38.943 3.944 52.059 13.744 34.35 25.666 39.367 80.747 28.97 119.424-3.658 13.61-14.935 37.378-29.535 40.316-8.794 1.77-31.573-17.648-39.019-23.329q-.945-.696-1.883-1.403c-24.085-18.137-47.603-38.223-70.349-58.046C325.22 97.86 313.502 86.85 303.041 75.03c-12.24-13.83 3.08-23.763 14.139-30.188 23.125-13.597 52.783-25.135 79.693-27.322"/><path fill="url(#c)" d="M251.442 84.925c4.066.582 6.523 1.143 9.718 4.122 2.463 2.297 4.792 6.715 6.073 9.891 5.054 12.537 9.287 25.762 13.4 38.625a1282 1282 0 0 1 27.974 102.2c2.906 12.135 6.723 26.232 7.986 38.581.55 5.376-3.04 12.442-6.954 16.201-15.123 14.522-38.281 16.592-57.802 16.951-17.465-.316-38.305-2.487-53.655-11.107-20.352-11.428-10.332-30.136-5.388-47.014l15.821-54.137 15.567-56.437c4.059-15.215 8.058-36.818 14.763-50.924 1.928-4.056 8.001-6.202 12.497-6.952"/><path fill="url(#d)" d="M282.263 73.926c14.276-.906 28.429 16.881 38.479 26.311a1103 1103 0 0 0 70.155 60.24q12.84 9.977 25.917 19.642c12.099 9.017 27.843 17.605 24.553 35.322-3.691 19.878-19.973 36.246-35.099 48.407-16.527 12.013-47.496 30.328-69.019 23.356-13.012-4.216-15.359-19.552-18.347-31.276l-8.989-36.789a1167 1167 0 0 0-26.505-90.981c-4.199-12.185-9.637-26.087-12.349-38.707-1.77-8.238 4.061-12.8 11.204-15.525"/><path fill="url(#e)" d="M215.706 84.905c14.312-1.604 14.758 8.41 12.309 19.365-3.805 17.018-8.223 33.887-12.862 50.691a2716 2716 0 0 1-21.84 76.053c-2.76 9.29-11.496 40.756-15.64 47.055a20.75 20.75 0 0 1-13.94 9.03c-15.277 2.412-35.887-8.996-47.882-17.353-13.349-9.867-44.3-42.24-26.247-59.573 20.088-19.286 42.384-36.987 62.789-56.122a398 398 0 0 0 28.985-30.442c5.563-6.6 10.926-13.337 16.416-19.987 5.565-6.741 9.472-15.511 17.912-18.717"/><path fill="url(#f)" d="M130.841 72.52c16.671-.98 34.355.47 50.996 1.567 5.851.492 15.332 1.51 19.578 5.974 5.591 5.88-6.041 18.457-9.411 22.845-25.503 33.198-58.477 62.082-89.957 89.063-9.638 8.388-21.32 23.71-34.001 11.47-26.253-25.342-30.385-78.19-6.02-106.117C78.92 77.96 106.734 74.225 130.842 72.52"/><defs><linearGradient id="a" x1="290.547" x2="243.556" y1="360.054" y2="40.881" gradientUnits="userSpaceOnUse"><stop stop-color="#006e25"/><stop offset="1" stop-color="#00d199"/></linearGradient><linearGradient id="b" x1="488.369" x2="312.38" y1="134.078" y2="37.66" gradientUnits="userSpaceOnUse"><stop stop-color="#006e25"/><stop offset="1" stop-color="#beebba"/></linearGradient><linearGradient id="c" x1="248.813" x2="264.364" y1="310.472" y2="86.565" gradientUnits="userSpaceOnUse"><stop stop-color="#006e25"/><stop offset="1" stop-color="#beebba"/></linearGradient><linearGradient id="d" x1="399.442" x2="284.003" y1="267.648" y2="72.797" gradientUnits="userSpaceOnUse"><stop stop-color="#006e25"/><stop offset="1" stop-color="#beebba"/></linearGradient><linearGradient id="e" x1="118.19" x2="220.138" y1="270.911" y2="84.667" gradientUnits="userSpaceOnUse"><stop stop-color="#006e25"/><stop offset="1" stop-color="#beebba"/></linearGradient><linearGradient id="f" x1="124.388" x2="124.388" y1="72.195" y2="208.006" gradientUnits="userSpaceOnUse"><stop stop-color="#beebba"/><stop offset="1" stop-color="#006e25"/></linearGradient></defs></g></svg>