<svg width="287" height="200" viewBox="0 0 287 200" fill="none" xmlns="http://www.w3.org/2000/svg">
<path d="M62.7656 189.472C46.4883 181.716 19.7231 119.636 13.1194 101.011C5.66406 79.9842 -6.03401 50.1239 3.70714 28.6093C8.98089 16.9628 19.6044 8.85632 31.4597 4.72615C36.203 3.06724 41.0488 2.24637 46.0466 1.98128C71.1256 0.647315 96.7307 1.9471 121.875 1.79318C140.554 1.67347 270.835 -2.37975 279.781 2.10957C282.892 3.67442 284.682 6.16274 285.728 9.44636C286.968 13.3371 286.57 17.8948 286.452 21.9309C281.276 30.5504 260.786 49.4055 252.558 57.6231C232.132 78.3082 211.592 98.8821 190.939 119.336C179.146 130.957 167.432 142.664 155.799 154.447C136.881 173.678 115.433 201.452 86.5487 199.135C80.3243 198.639 78.6193 199.203 72.9629 196.228C69.2515 195.706 65.3658 191.952 62.7656 189.472Z" fill="#83DA95"/>
</svg>
