<svg width="199" height="288" viewBox="0 0 199 288" fill="none" xmlns="http://www.w3.org/2000/svg">
<path d="M111.89 221.741C87.5725 198.563 63.815 174.803 40.6392 150.481C24.8273 133.952 0.468472 113.083 0.00635662 88.6214C-0.467717 63.4975 25.6764 48.0807 44.5514 36.8737C47.0217 35.3884 49.7132 34.7223 52.2117 33.3669C55.0399 31.7627 59.9703 27.8027 62.8241 26.6851C91.3813 15.4943 122.686 2.41884 153.587 0.0450642C164.902 -0.542395 175.889 4.66865 183.833 12.4655C187.84 16.3982 194.319 25.7154 195.053 31.3805C198 54.3538 197.18 79.0339 197.513 102.165C198.282 156.972 198.666 211.783 198.649 266.596C198.598 272.049 198.94 279.906 194.711 283.807C191.808 286.483 188.161 287.793 184.248 287.298C166.358 285.033 130.598 240.369 115.551 226.107L111.89 221.741Z" fill="#83DA95"/>
</svg>
