<svg width="198" height="286" viewBox="0 0 198 286" fill="none" xmlns="http://www.w3.org/2000/svg">
<path d="M7.05274 0.0770349L19.1395 0C19.5068 0.230879 19.8655 0.470359 20.2413 0.692687C33.8144 8.99578 182.383 158.896 189.909 171.911C196.212 182.814 199.945 196.718 196.426 209.125C191.378 226.937 171.586 238.592 156.612 247.357C140.28 261.073 67.9819 285.845 44.9616 285.965C32.7723 285.897 22.6075 281.938 14.134 273.19C-0.344488 258.26 1.73972 240.704 1.31263 220.934C0.902618 200.36 0.706084 179.778 0.706084 159.195C0.55233 109.804 -0.720325 55.2742 0.578039 6.26801C2.55975 4.2072 4.95998 2.05233 7.05274 0.0770349Z" fill="#83DA95"/>
</svg>
