<svg width="172" height="215" viewBox="0 0 172 215" fill="none" xmlns="http://www.w3.org/2000/svg">
<path d="M11.5238 0.033329C25.7998 -0.872671 39.9528 16.9143 50.0028 26.3443C72.5358 47.3963 95.9419 67.4933 120.158 86.5843C128.718 93.2353 137.358 99.7834 146.075 106.226C158.174 115.243 173.918 123.831 170.628 141.548C166.937 161.426 150.655 177.794 135.529 189.955C119.002 201.968 88.0329 220.283 66.5098 213.311C53.4978 209.095 51.1509 193.759 48.1629 182.035L39.1739 145.246C31.5749 114.573 22.7318 84.2213 12.6688 54.2653C8.46985 42.0803 3.03185 28.1783 0.31985 15.5583C-1.45015 7.32032 4.38083 2.75833 11.5238 0.033329Z" fill="url(#paint0_linear_62159_510)"/>
<defs>
<linearGradient id="paint0_linear_62159_510" x1="128.703" y1="193.755" x2="13.2637" y2="-1.0961" gradientUnits="userSpaceOnUse">
<stop stop-color="#006E25"/>
<stop offset="1" stop-color="#BEEBBA"/>
</linearGradient>
</defs>
</svg>
