<svg width="894" height="896" viewBox="0 0 894 896" fill="none" xmlns="http://www.w3.org/2000/svg">
<path d="M391.921 0.529993C397.786 -0.0720025 402.423 -0.163505 408.344 0.267469C410.945 0.456448 415.035 1.35175 417.42 1.20723C421.266 3.76144 426.137 6.76886 429.599 9.69247C448.229 59.3828 393.039 49.6576 364.797 59.3169C360.662 59.1271 342.362 64.2004 337.752 65.6635C282.27 83.2779 228.27 110.782 185.092 150.247C119.645 210.065 72.9058 290.689 57.2331 378.252C56.2269 383.874 52.5342 406.349 52.7076 411.78C53.5037 436.618 49.9862 468.052 54.996 491.918C56.9102 501.033 54.9089 509.653 56.531 516.468C65.5888 554.546 76.5873 591.846 94.9284 626.606C97.2262 630.958 101.386 639.655 104.201 642.947C105.882 645.666 113.532 658.193 113.931 660.562C126.382 676.553 136.66 692.577 150.393 708.029C228.387 795.797 334.732 844.906 452.149 844.735C538.576 844.171 622.346 814.772 690.211 761.2C769.574 699.119 823.405 612.967 840.873 513.407C845.033 489.677 838.148 477.706 863.569 464.623C872.008 464.623 876.954 464.118 883.838 470.275C888.887 474.79 889.86 479.407 893.158 483.828C893.721 496.852 890.04 514.244 887.699 527.336C872.324 610.256 834.005 687.19 777.108 749.399C713.599 817.893 630.674 865.292 539.464 885.224C523.594 888.747 496.106 893.545 480.167 894.212L479.125 894.246C469.19 895.058 425.788 894.006 421.041 895.999C410.26 896.067 398.6 893.134 389.19 893.288C332.371 884.087 296.763 872.791 245.073 846.753C233.043 841.657 213.638 829.548 202.927 821.801C157.879 795.088 107.769 743.422 78.8279 700.034C72.9357 692.791 60.3902 671.815 56.2576 663.521C53.1535 660.092 47.4775 646.059 43.7865 640.989C42.3694 635.601 37.9353 626.298 35.3813 620.817C16.989 581.336 10.2161 542.147 3.09219 499.716C-2.83843 450.89 0.575757 420.281 6.48673 372.686C13.3886 339.584 18.9203 320.685 29.1697 288.411C33.708 279.968 38.3727 267.871 42.3463 258.838C52.7751 235.127 64.545 216.033 79.0286 194.715C126.699 125.023 192.594 69.7963 269.508 35.0729C291.859 24.9775 319.167 16.3709 342.744 9.40174C349.871 8.81599 358.935 6.51574 365.572 3.90938C367.098 3.30995 367.474 2.873 369.417 2.32231C375.582 3.71357 385.794 2.02045 391.921 0.529993Z" fill="#83DA95"/>
</svg>
