<svg width="185" height="175" viewBox="0 0 185 175" fill="none" xmlns="http://www.w3.org/2000/svg">
<path d="M98.3495 0.471398C114.583 -1.8096 137.292 4.41542 150.408 14.2154C184.758 39.8814 189.775 94.9624 179.378 133.639C175.72 147.249 164.443 171.017 149.843 173.955C141.049 175.725 118.27 156.307 110.824 150.626C110.194 150.162 109.566 149.694 108.941 149.223C84.8565 131.086 61.3385 111 38.5925 91.1774C26.6965 80.8114 14.9785 69.8014 4.51745 57.9814C-7.72255 44.1504 7.59749 34.2184 18.6565 27.7934C41.7815 14.1964 71.4395 2.6584 98.3495 0.471398Z" fill="url(#paint0_linear_62159_508)"/>
<defs>
<linearGradient id="paint0_linear_62159_508" x1="189.846" y1="117.029" x2="13.8568" y2="20.611" gradientUnits="userSpaceOnUse">
<stop stop-color="#006E25"/>
<stop offset="1" stop-color="#BEEBBA"/>
</linearGradient>
</defs>
</svg>
