<svg width="288" height="200" viewBox="0 0 288 200" fill="none" xmlns="http://www.w3.org/2000/svg">
<path d="M74.3607 0.519976C113.007 -3.49732 124.916 16.3164 150.368 40.8511C173.831 63.6517 197.074 86.678 220.094 109.926L261.419 151.019C268.587 158.156 276.747 165.867 283.232 173.579C286.752 177.764 287.012 184.582 287.558 189.947C282.431 195.267 281.433 195.772 275.224 199.834C257.425 200.381 232.466 198.842 213.588 198.773C171.378 198.722 129.094 198.705 86.8839 198.525C78.887 198.491 72.449 196.978 64.7605 196.541C58.6744 196.191 50.018 197.354 43.9798 196.883C32.7037 196.02 18.3029 190.65 10.9518 181.835C3.32048 172.687 -0.911171 159.278 0.165959 147.369C1.31142 134.707 5.50468 123.176 9.1307 111.149C19.7833 75.819 35.2739 42.8623 58.0978 13.7262C62.4824 8.12955 67.8927 5.77375 73.1878 1.58458C73.5791 1.22971 73.9695 0.874846 74.3607 0.519976Z" fill="#83DA95"/>
</svg>
