<svg width="429" height="428" viewBox="0 0 429 428" fill="none" xmlns="http://www.w3.org/2000/svg">
<path d="M65.9407 1.57477C71.3904 -0.392829 77.9934 -0.0293911 83.8616 0.143341C121.847 1.25755 162.532 16.8376 196.879 32.5802C269.212 65.7327 330.457 123.033 372.577 190.229C388.294 215.294 397.271 239.442 408.478 266.243C409.742 269.732 411.374 273.854 412.237 277.396C418.02 289.93 426.903 322.487 427.92 335.777C431.165 378.541 394.999 422.73 351.957 426.569C339.75 427.654 326.374 427.055 314.33 427.038L246.926 426.956L137.308 426.875C89.9947 426.834 43.4073 433.913 13.4681 387.418C-2.45398 362.694 0.176935 339.201 0.142768 311.296L0.100017 236.149L0.074366 130.601C0.0658241 112.257 -0.147681 93.6195 0.330664 75.2954C0.484417 69.6482 2.04753 65.8943 3.38007 60.4686C4.79802 56.4889 5.94262 52.4323 7.53995 48.5313C17.8756 23.2954 40.8362 9.04243 65.9407 1.57477Z" fill="#83DA95"/>
</svg>
