<svg width="198" height="288" viewBox="0 0 198 288" fill="none" xmlns="http://www.w3.org/2000/svg">
<path d="M0.452199 204.681C-0.526699 194.565 -0.290103 186.484 4.99731 177.395C14.4745 161.088 29.9857 147.081 43.2128 133.767L91.8391 85.0429C111.711 64.8538 131.804 44.8785 152.113 25.1341C159.522 17.9426 167.043 9.90457 174.656 3.0637C182.872 -4.31588 192.526 3.01239 196.951 10.5373C197.19 65.4695 197.13 120.402 196.763 175.334L196.874 218.79C196.968 237.697 198.386 259.263 183.928 273.808C175.51 282.282 164.366 287.635 151.992 287.438C107.207 283.898 47.0789 258.322 12.6432 229.368C11.7839 228.65 8.65922 224.827 8.10229 224.135C2.84306 217.422 1.50285 212.847 0.452199 204.681Z" fill="#83DA95"/>
</svg>
