<svg width="519" height="364" viewBox="0 0 519 364" fill="none" xmlns="http://www.w3.org/2000/svg">
<path d="M63.0779 73.0042C90.5429 60.7742 115.607 60.1222 144.954 60.9502C152.99 61.2352 161.376 62.3382 169.361 62.6762C207.335 64.2822 243.801 62.6212 279.23 47.1812C297.994 39.0032 315.849 27.9792 334.434 19.3252C361.037 6.9362 397.259 -4.30083 426.53 1.63217C436.301 2.47017 452.884 6.72318 461.158 12.0432C479.133 19.5872 498.25 43.5062 505.236 61.5022C508.395 70.1392 512.556 78.8592 514.514 87.8652C520.715 116.553 519.927 146.077 513.175 174.607C473.559 341.991 281.865 399.793 133.542 341.062C57.6689 311.018 -11.8481 235.011 1.70189 147.117C2.90589 139.308 4.89689 130.96 8.22389 123.732C16.4709 100.834 39.5979 79.5652 63.0779 73.0042Z" fill="#DFFDED"/>
</svg>
