<svg width="286" height="199" viewBox="0 0 286 199" fill="none" xmlns="http://www.w3.org/2000/svg">
<path d="M9.47284 0L170.06 1.62473L218.732 1.57337C236.635 1.53916 251.891 -0.538777 267.096 10.2014C276.261 16.6745 283.846 23.9515 285.367 35.5553C290.321 73.3682 263.551 134.756 243.358 164.608C241.197 170.662 231.485 182.677 226.402 187.286C217.331 195.563 205.227 199.693 192.995 198.693C171.794 197.137 150.491 173.835 135.867 159.708C117.015 141.452 98.4194 122.93 80.08 104.161C55.6844 79.4053 30.4517 55.736 7.46552 29.6466C-2.77618 18.0257 -2.82745 9.72258 9.47284 0Z" fill="#83DA95"/>
</svg>
